<?xml version="1.0" encoding="utf-8"?>
<!-- Generator: Adobe Illustrator 25.0.1, SVG Export Plug-In . SVG Version: 6.00 Build 0)  -->
<svg version="1.1" id="Layer_1" xmlns="http://www.w3.org/2000/svg" xmlns:xlink="http://www.w3.org/1999/xlink" x="0px" y="0px"
	 viewBox="0 0 80 16" style="enable-background:new 0 0 80 16;" xml:space="preserve">
<style type="text/css">
	.st0{fill:#1D1E1C;}
	.st1{fill:#1D1D1B;}
</style>
<g>
	<path class="st0" d="M18.8,9.7c-0.7,0-1.4-0.7-1.4-1.4c0-0.7,0.6-1.4,1.4-1.4c0.7,0,1.4,0.7,1.4,1.4C20.2,9.1,19.6,9.7,18.8,9.7z"
		/>
	<path class="st0" d="M24.3,9.7c-0.7,0-1.4-0.7-1.4-1.4c0-0.7,0.6-1.4,1.4-1.4c0.7,0,1.4,0.7,1.4,1.4C25.7,9.1,25.1,9.7,24.3,9.7z"
		/>
	<path class="st0" d="M29.8,9.7c-0.7,0-1.4-0.7-1.4-1.4c0-0.7,0.6-1.4,1.4-1.4c0.7,0,1.4,0.7,1.4,1.4C31.2,9.1,30.6,9.7,29.8,9.7z"
		/>
	<path class="st0" d="M51.5,9.7c-0.7,0-1.4-0.7-1.4-1.4c0-0.7,0.6-1.4,1.4-1.4c0.7,0,1.4,0.7,1.4,1.4C52.9,9.1,52.2,9.7,51.5,9.7z"
		/>
	<path class="st0" d="M57,9.7c-0.7,0-1.4-0.7-1.4-1.4c0-0.7,0.6-1.4,1.4-1.4c0.7,0,1.4,0.7,1.4,1.4C58.3,9.1,57.7,9.7,57,9.7z"/>
	<path class="st0" d="M62.5,9.7c-0.7,0-1.4-0.7-1.4-1.4c0-0.7,0.6-1.4,1.4-1.4c0.7,0,1.4,0.7,1.4,1.4C63.8,9.1,63.2,9.7,62.5,9.7z"
		/>
	<path class="st1" d="M69.9,1h-2.5c-2.1,0-2.7,0.4-4,2.8h-0.8L62.8,0h16.7l0.3,3.8h-0.8c-1.4-2.4-2-2.8-4-2.8h-2.5v11.8
		c0,1.5,0.6,2.3,2.5,2.3V16h-7.5v-0.9c1.9,0,2.5-0.8,2.5-2.4V1z"/>
	<path class="st1" d="M36.3,3c0-1.4-0.8-2.1-2.4-2.1V0h8.2c3.1,0,5.3,1.7,5.3,4.2c0,2.7-2.3,4.6-5.8,4.6c-0.7,0-1.6-0.3-1.6-0.3v-1
		c0,0,0.5,0.1,1.1,0.1c2.1,0,3.4-1.3,3.4-3.1c0-1.7-0.6-3.5-3.8-3.5h-2v11.7c0,1.7,0.6,2.4,2.7,2.4V16h-7.6v-0.9
		c2,0,2.4-0.9,2.4-2.4V3z"/>
	<path class="st1" d="M9.5,8.1"/>
	<path class="st1" d="M16,15.7L9.5,8.1c3.2-0.5,4.4-2.3,4.4-4c0-2.3-1.6-4.1-6-4.1H0.3v0.9c1.6,0,2.4,0.8,2.4,2.3v9.2
		c0,1.6-0.3,2.7-2.4,2.7V16h7.3v-0.9c-1.8,0-2.5-0.7-2.5-2.2V8.4h0.7c1.1,0,1.3,0.3,1.9,1l4.8,6c0.3,0.4,0.7,0.6,1.2,0.6l2.3,0V15.7
		z M7.3,7.4H5.1V1h1.8c2.9,0,4.2,1.6,4.2,3.4C11.1,6.3,9.9,7.4,7.3,7.4z"/>
</g>
</svg>
