<svg xmlns="http://www.w3.org/2000/svg" viewBox="0 0 134.58 23.03"><defs><style>.cls-1{fill:#1d1d1b;}</style></defs><g id="Layer_2" data-name="Layer 2"><g id="Layer_1-2" data-name="Layer 1"><path class="cls-1" d="M2.75,6.75c0,.76.36,1.13,1.26,1.13v.46H.28V7.88c1.05,0,1.21-.58,1.21-1.38V1.79C1.49,1,1.12.61.28.61V.16H4.2c2.24,0,3.06.94,3.06,2.11,0,.87-.62,1.78-2.23,2.05L6.74,6.27c.91,1,1.52,1.61,2,1.61v.46h-1c-.86,0-1.22-.27-2.12-1.38L4.05,5a1,1,0,0,0-1-.5H2.75ZM3.87,4C5.22,4,5.8,3.37,5.8,2.41S5.16.67,3.68.67H2.75V4Z"/><path class="cls-1" d="M9.75,5a2.14,2.14,0,0,0,3.58,1.92l.25.23A2.52,2.52,0,0,1,8.86,5.7a2.66,2.66,0,0,1,2.5-2.89A2.22,2.22,0,0,1,13.58,5Zm2.57-.43c-.09-.85-.53-1.33-1.19-1.33a1.36,1.36,0,0,0-1.3,1.33Z"/><path class="cls-1" d="M16,6.91c0,.6.2,1,.74,1v.44H14.18V7.9A.8.8,0,0,0,15,7V1.28L14.18.83V.55L15.72,0H16Z"/><path class="cls-1" d="M21.6,7.58a3.24,3.24,0,0,1-2,.89,2.38,2.38,0,0,1-2.31-2.58,3,3,0,0,1,2.77-3.13,2,2,0,0,1,1.68.78,3,3,0,0,0,.51-.76h.3V7.16c0,.43.21.55.47.55a1.07,1.07,0,0,0,.4,0v.47l-1.54.34H21.6Zm0-2.46A1.64,1.64,0,0,0,20,3.3c-.55,0-1.68.37-1.68,2.07,0,1,.49,2.29,1.81,2.29A1.89,1.89,0,0,0,21.6,7Z"/><path class="cls-1" d="M25.64,7c0,.55.13.72.84.72a7.56,7.56,0,0,0,.85-.06v.58a9.53,9.53,0,0,1-1.57.21c-.79,0-1.13-.33-1.13-1.06V3.54h-.89V3.21A3.39,3.39,0,0,0,25.23,2h.41v1h1.63v.6H25.64Z"/><path class="cls-1" d="M28.77,4.13l-.91-.46V3.39l1.62-.58h.3V6.94c0,.66.31.95.75,1v.44H27.91V7.9A.8.8,0,0,0,28.77,7ZM29.23,0a.65.65,0,1,1-.65.65A.65.65,0,0,1,29.23,0Z"/><path class="cls-1" d="M33.57,2.81a2.67,2.67,0,0,1,2.8,2.78,2.74,2.74,0,0,1-2.7,2.88A2.85,2.85,0,0,1,30.9,5.6,2.72,2.72,0,0,1,33.57,2.81ZM33.78,8a1.5,1.5,0,0,0,1.51-1.7c0-1-.41-3.07-1.76-3.07-.9,0-1.49.5-1.49,1.9C32,6.21,32.54,8,33.78,8Z"/><path class="cls-1" d="M38.69,6.92c0,.66.26,1,1,1v.44H36.79V7.9A.8.8,0,0,0,37.68,7V4.1l-.8-.45V3.37l1.51-.56h.3v1h0a2.53,2.53,0,0,1,1.92-1c1.12,0,1.76.56,1.76,1.86V6.94c0,.6.17.89.85,1v.44H40.41V7.9c.7,0,1-.33,1-1v-2c0-.76-.35-1.32-1.13-1.32a2.49,2.49,0,0,0-1.57.71Z"/><path class="cls-1" d="M48.08,7.58a3.21,3.21,0,0,1-1.94.89,2.38,2.38,0,0,1-2.32-2.58,3,3,0,0,1,2.77-3.13,2,2,0,0,1,1.68.78,2.84,2.84,0,0,0,.52-.76h.3V7.16c0,.43.2.55.47.55a1,1,0,0,0,.39,0v.47l-1.53.34h-.34Zm0-2.46A1.63,1.63,0,0,0,46.52,3.3c-.55,0-1.68.37-1.68,2.07,0,1,.49,2.29,1.81,2.29A1.89,1.89,0,0,0,48.08,7Z"/><path class="cls-1" d="M52.27,6.91c0,.6.2,1,.74,1v.44H50.44V7.9A.79.79,0,0,0,51.26,7V1.28L50.44.83V.55L52,0h.3Z"/><path class="cls-1" d="M57.26,1.7C57.26,1,56.87.61,56,.61V.16h4.2C61.83.16,63,1,63,2.33s-1.19,2.32-3,2.32c-.54,0-.84-.12-.84-.34s.47-.24.63-.24a1.59,1.59,0,0,0,1.75-1.6c0-.87-.33-1.8-2-1.8h-1v6c0,.89.31,1.25,1.38,1.25v.46H56V7.88c1,0,1.22-.47,1.22-1.25Z"/><path class="cls-1" d="M66.71,4.62h-.38c-.18-1-.56-1.37-1.22-1.37s-.9.29-.9.8c0,.9,1.82,1.12,2.51,1.8a1.47,1.47,0,0,1,.38,1c0,1-.71,1.59-1.83,1.59a4.34,4.34,0,0,1-1.77-.39V6.57h.4C64,7.51,64.46,8,65.18,8s1.09-.36,1.09-.85c0-.92-1.58-.9-2.56-1.88a1.49,1.49,0,0,1-.37-1,1.56,1.56,0,0,1,1.75-1.48,2.55,2.55,0,0,1,1.62.51Z"/><path class="cls-1" d="M71.19,3.08C71.62,3,72.7,3,73.23,3V7.29a3.91,3.91,0,0,1-.59,2.65,2.63,2.63,0,0,1-2.08.69c-1.35,0-2.2-.71-2.2-1.4a.5.5,0,0,1,.46-.51c.5,0,.61.66.74.89a1.13,1.13,0,0,0,1.11.5,1.43,1.43,0,0,0,1.56-1.58v-1a2.83,2.83,0,0,1-2,.94A1.47,1.47,0,0,1,68.6,7V4.45c0-.78-.18-1-1-1V3.08l2-.14V6.42a1.06,1.06,0,0,0,1.09,1.2A2.39,2.39,0,0,0,72.23,7V4.45c0-.77-.14-.94-1-1Z"/><path class="cls-1" d="M79,6.93a2.13,2.13,0,0,1-2.2,1.54,2.59,2.59,0,0,1-2.55-2.78,2.73,2.73,0,0,1,2.83-2.88c1,0,1.89.28,1.89,1.08,0,.36-.18.57-.45.57-.78,0-.26-1.14-1.64-1.14-1,0-1.66.78-1.66,1.95a2.12,2.12,0,0,0,2,2.25,1.61,1.61,0,0,0,1.54-.77Z"/><path class="cls-1" d="M84.86,7a.81.81,0,0,0,.88.92v.44H83V7.9a.8.8,0,0,0,.9-.86V4.79a1.09,1.09,0,0,0-1.16-1.18,2.39,2.39,0,0,0-1.46.55v2.7c0,.73.25,1,1,1v.44H79.32V7.9c.71,0,.9-.45.9-1V1.33l-.9-.5V.55L80.93,0h.3V3.71a2.71,2.71,0,0,1,2-.9,1.54,1.54,0,0,1,1.64,1.74Z"/><path class="cls-1" d="M89,2.81a2.67,2.67,0,0,1,2.8,2.78,2.75,2.75,0,0,1-2.7,2.88A2.85,2.85,0,0,1,86.33,5.6,2.71,2.71,0,0,1,89,2.81ZM89.21,8a1.5,1.5,0,0,0,1.51-1.7c0-1-.41-3.07-1.77-3.07-.9,0-1.48.5-1.48,1.9C87.47,6.21,88,8,89.21,8Z"/><path class="cls-1" d="M96.93,7.58A3.18,3.18,0,0,1,95,8.47a2.38,2.38,0,0,1-2.31-2.58,3,3,0,0,1,2.77-3.13,2,2,0,0,1,1.67.78,2.84,2.84,0,0,0,.52-.76h.3V7.16c0,.43.2.55.47.55a1,1,0,0,0,.39,0v.47l-1.53.34h-.34Zm0-2.46A1.63,1.63,0,0,0,95.37,3.3c-.55,0-1.68.37-1.68,2.07,0,1,.5,2.29,1.82,2.29A1.87,1.87,0,0,0,96.93,7Z"/><path class="cls-1" d="M101.05,6.92c0,.66.26,1,1,1v.44H99.16V7.9A.8.8,0,0,0,100,7V4.1l-.8-.45V3.37l1.51-.56h.3v1h0a2.54,2.54,0,0,1,1.92-1c1.12,0,1.77.56,1.77,1.86V6.94c0,.6.16.89.85,1v.44h-2.83V7.9c.69,0,1-.33,1-1v-2c0-.76-.35-1.32-1.13-1.32a2.51,2.51,0,0,0-1.57.71Z"/><path class="cls-1" d="M110.44,7.58a3.18,3.18,0,0,1-1.94.89,2.38,2.38,0,0,1-2.31-2.58A3,3,0,0,1,109,2.76a2,2,0,0,1,1.68.78,3,3,0,0,0,.51-.76h.3V7.16c0,.43.21.55.47.55a1.07,1.07,0,0,0,.4,0v.47l-1.54.34h-.34Zm0-2.46a1.63,1.63,0,0,0-1.55-1.82c-.56,0-1.68.37-1.68,2.07,0,1,.49,2.29,1.81,2.29A1.87,1.87,0,0,0,110.44,7Z"/><path class="cls-1" d="M114.63,6.91c0,.6.21,1,.75,1v.44H112.8V7.9a.8.8,0,0,0,.83-.91V1.28L112.8.83V.55L114.33,0h.3Z"/><path class="cls-1" d="M119.37,3.08c.43-.05,1.51-.11,2-.13V7.29a3.91,3.91,0,0,1-.59,2.65,2.65,2.65,0,0,1-2.08.69c-1.35,0-2.2-.71-2.2-1.4a.5.5,0,0,1,.46-.51c.5,0,.61.66.74.89a1.13,1.13,0,0,0,1.11.5,1.43,1.43,0,0,0,1.55-1.58v-1a2.77,2.77,0,0,1-2,.94A1.47,1.47,0,0,1,116.78,7V4.45c0-.78-.18-1-1-1V3.08l2-.14V6.42a1.06,1.06,0,0,0,1.09,1.2A2.36,2.36,0,0,0,120.4,7V4.45c0-.77-.13-.94-1-1Z"/><path class="cls-1" d="M124.44,7c0,.55.13.72.84.72a7.73,7.73,0,0,0,.85-.06v.58a9.83,9.83,0,0,1-1.57.21c-.79,0-1.13-.33-1.13-1.06V3.54h-.9V3.21A3.42,3.42,0,0,0,124,2h.41v1h1.63v.6h-1.63Z"/><path class="cls-1" d="M127.39,4.13l-.91-.46V3.39l1.62-.58h.3V6.94c0,.66.31.95.74,1v.44h-2.61V7.9a.81.81,0,0,0,.86-.87ZM127.85,0a.64.64,0,0,1,.64.65.64.64,0,0,1-.64.65.65.65,0,0,1,0-1.3Z"/><path class="cls-1" d="M134.58,6.93a2.14,2.14,0,0,1-2.2,1.54,2.58,2.58,0,0,1-2.55-2.78,2.73,2.73,0,0,1,2.83-2.88c1,0,1.89.28,1.89,1.08,0,.36-.18.57-.45.57-.78,0-.27-1.14-1.65-1.14-1,0-1.65.78-1.65,1.95a2.11,2.11,0,0,0,1.95,2.25,1.63,1.63,0,0,0,1.55-.77Z"/><path class="cls-1" d="M3.77,13.07H2.47c-1.07,0-1.4.23-2.06,1.43H0l.12-1.94H8.66l.13,1.94H8.38c-.69-1.21-1-1.43-2.06-1.43H5v6.05c0,.75.28,1.16,1.29,1.16v.46H2.47v-.46c1,0,1.3-.38,1.3-1.24Z"/><path class="cls-1" d="M14.67,19.38a.81.81,0,0,0,.88.92v.44H12.77V20.3a.8.8,0,0,0,.9-.86V17.19A1.09,1.09,0,0,0,12.5,16a2.39,2.39,0,0,0-1.46.55v2.7c0,.73.25,1,1,1v.44H9.13V20.3c.71,0,.9-.45.9-1V13.73l-.9-.5V13l1.61-.55H11v3.71a2.71,2.71,0,0,1,2-.9A1.54,1.54,0,0,1,14.67,17Z"/><path class="cls-1" d="M16.68,17.41a2.14,2.14,0,0,0,3.57,1.92l.26.23a2.59,2.59,0,0,1-2.24,1.31,2.55,2.55,0,0,1-2.49-2.77,2.67,2.67,0,0,1,2.51-2.89,2.23,2.23,0,0,1,2.22,2.2ZM19.25,17c-.1-.85-.53-1.33-1.19-1.33A1.36,1.36,0,0,0,16.75,17Z"/><path class="cls-1" d="M22.93,19.15c0,.9.17,1.15,1.22,1.15v.44H21V20.3a.81.81,0,0,0,.88-.92V16.57L21,16.13v-.28l1.59-.64h.3v1.18h0c.54-.88.84-1.14,1.47-1.14a.9.9,0,0,1,.89.69c0,.06-.12.78-.5.78s-.5-.57-.9-.57-.5.21-1,.89Z"/><path class="cls-1" d="M29.89,20a3.24,3.24,0,0,1-1.94.89,2.38,2.38,0,0,1-2.32-2.58,3,3,0,0,1,2.77-3.13,2,2,0,0,1,1.68.78,3.1,3.1,0,0,0,.52-.76h.3v4.38c0,.43.2.55.46.55a1,1,0,0,0,.4-.05v.47l-1.53.34h-.34Zm0-2.46a1.63,1.63,0,0,0-1.56-1.82c-.55,0-1.68.37-1.68,2.07,0,1,.49,2.29,1.81,2.29a1.89,1.89,0,0,0,1.43-.66Z"/><path class="cls-1" d="M33.94,21.6c0,.79.33,1,1,1V23H32v-.44a.81.81,0,0,0,.89-.87V16.53l-.85-.46v-.28l1.56-.58h.3v.9a2.6,2.6,0,0,1,2-.9,2.29,2.29,0,0,1,2.21,2.54,3,3,0,0,1-2.76,3.12,3.09,3.09,0,0,1-1.4-.35Zm0-2.87a1.47,1.47,0,0,0,1.49,1.62c1,0,1.66-.73,1.66-2.05,0-1.67-1-2.25-1.74-2.25a2.31,2.31,0,0,0-1.41.55Z"/><path class="cls-1" d="M42.3,15.48c.43-.05,1.51-.11,2-.13v4.34a3.91,3.91,0,0,1-.59,2.65,2.66,2.66,0,0,1-2.09.69c-1.34,0-2.19-.71-2.19-1.4a.5.5,0,0,1,.45-.51c.51,0,.61.66.75.89a1.11,1.11,0,0,0,1.1.5,1.44,1.44,0,0,0,1.56-1.58v-1a2.8,2.8,0,0,1-2,.94,1.46,1.46,0,0,1-1.65-1.47V16.85c0-.78-.18-1-1-1v-.41l2-.14v3.48a1.06,1.06,0,0,0,1.1,1.2,2.38,2.38,0,0,0,1.52-.63V16.85c0-.77-.13-.94-1-1Z"/><path class="cls-1" d="M49.25,14.21c0-.8-.28-1.2-1.36-1.2v-.45h4V13c-1.1,0-1.35.47-1.35,1.15v4.48c0,1.1.4,1.58,1.58,1.58h1.07a2.46,2.46,0,0,0,2.35-1.49H56l-.5,2H47.89v-.46c1.13-.07,1.36-.34,1.36-1.38Z"/><path class="cls-1" d="M57.78,19.42c0,.55.13.72.84.72a7.73,7.73,0,0,0,.85-.06v.58a9.83,9.83,0,0,1-1.57.21c-.79,0-1.13-.33-1.13-1.06V15.94h-.9v-.33a3.36,3.36,0,0,0,1.5-1.23h.41v1h1.63v.6H57.78Z"/><path class="cls-1" d="M64.25,13.62l-.88-.48v-.27L65,12.4h.3v7.1c0,.53.27.73.87.55v.48l-1.58.34h-.29V20a3,3,0,0,1-2,.9A2.41,2.41,0,0,1,60,18.3a3,3,0,0,1,2.92-3.09,5.13,5.13,0,0,1,1.34.22Zm0,4.06c0-1.47-.93-2-1.59-2a1.84,1.84,0,0,0-1.66,2c0,.84.45,2.38,1.83,2.38a1.79,1.79,0,0,0,1.42-.68Z"/><path class="cls-1" d="M68.75,20.12a.76.76,0,0,1-.75.75.74.74,0,0,1-.73-.75.73.73,0,0,1,.73-.73A.74.74,0,0,1,68.75,20.12Z"/></g></g></svg>